<svg xmlns="http://www.w3.org/2000/svg" viewBox="0 0 8 8"><rect width="8" height="8" rx="2.67" ry="2.67" fill="#ff0080"/><path d="M6.26 1.82c-.31.38-.71.69-1.17.88.22.26.37.58.37.94 0 .43-.19.81-.49 1.07-.14-.33-.24-.69-.24-1.07 0-.04.01-.07.02-.11-.24.06-.49.11-.74.11s-.51-.04-.74-.11c0 .04.02.07.02.11 0 .39-.1.74-.24 1.07-.3-.27-.49-.64-.49-1.07 0-.36.15-.69.37-.94-.46-.19-.86-.5-1.17-.88-.4.5-.66 1.13-.66 1.82 0 1.61 1.31 2.92 2.92 2.92s2.92-1.31 2.92-2.92c0-.69-.25-1.32-.66-1.82z" fill="#fff"/></svg>