<svg xmlns="http://www.w3.org/2000/svg" viewBox="0 0 8 8"><path d="M4 0C1.8 0 0 1.8 0 4s1.79 4 4 4 4-1.79 4-4-1.79-4-4-4Zm2.43 2.25H5.5c-.1-.35-.22-.7-.38-1.03.53.21.98.57 1.31 1.03ZM4 1.24c.18.32.33.66.45 1.01h-.9c.12-.35.26-.69.45-1.01ZM1.11 4.75C1.05 4.51 1 4.26 1 4s.04-.51.11-.75H2.3c-.03.25-.04.5-.04.75s.02.5.04.75H1.11Zm.47 1h.93c.1.34.22.68.37 1-.52-.21-.97-.55-1.3-1Zm.93-3.5h-.93c.33-.45.78-.79 1.3-1-.15.32-.27.65-.37 1Zm1.5 4.51c-.18-.32-.33-.66-.45-1.01h.9c-.12.35-.26.69-.45 1.01Zm.7-2.01h-1.4c-.03-.25-.05-.5-.05-.75s.02-.5.05-.75h1.4c.03.25.05.5.05.75s-.02.5-.05.75Zm.42 2.03c.16-.33.28-.67.38-1.03h.93c-.33.46-.78.82-1.31 1.03Zm.59-2.03c.03-.25.04-.5.04-.75s-.02-.5-.04-.75h1.19c.06.24.11.49.11.75s-.04.51-.11.75H5.72Z"/></svg>