<svg xmlns="http://www.w3.org/2000/svg" viewBox="0 0 8 8"><path d="M7.29 7.89h.55L6.12 3.86h-.59L3.81 7.89h.55l.54-1.26h1.86l.54 1.26ZM5.11 6.13l.71-1.67.71 1.67H5.1Z"/><path d="M8 8h-.79l-.54-1.26H4.96L4.42 8h-.79l1.81-4.25h.74L7.99 8Zm-.64-.22h.3l-1.62-3.8H5.6l-1.62 3.8h.3l.54-1.26h2.01l.54 1.26ZM6.7 6.24H4.93l.88-2.07.88 2.07Zm-1.43-.22h1.09l-.55-1.28-.55 1.28ZM6 1.5V.75H3.38V0h-.75v.75H0v.75h3.93l-1.1 1.4-.74-.83-.56.5.83.92L.75 5.54l.59.46 1.53-1.94 1.08 1.19.55-.5-1.16-1.29L4.88 1.5H6z"/></svg>