<svg xmlns="http://www.w3.org/2000/svg" viewBox="0 0 8 8"><path d="m5.99 3.87 1.3 1.3c.32-.42.56-.83.72-1.16-.26-.56-.71-1.33-1.5-2-.46-.39-1.34-.92-2.25-1h-.5c-.18.02-.35.06-.52.11l.91.91c.99.07 1.78.86 1.85 1.85ZM6.61 5.9l-.89-.89-.77-.77-1.19-1.19-.77-.77-.77-.77L.71 0 0 .71l1.4 1.4C.68 2.75.25 3.47 0 4c.26.56.71 1.33 1.5 2 .46.39 1.34.92 2.25 1h.5c.55-.05 1.08-.27 1.53-.52L7.3 8l.71-.71-1.4-1.4Zm-2.6.1c-1.1 0-2-.9-2-2 0-.37.1-.72.28-1.01l.76.76c-.02.08-.04.16-.04.25 0 .55.45 1 1 1 .09 0 .17-.02.25-.04l.76.76c-.3.18-.64.28-1.01.28Z"/></svg>