<svg xmlns="http://www.w3.org/2000/svg" viewBox="0 0 90 60"><path d="m0 10.3 8.2-3 8.2-2.4 8.1 7.2 8.2-4.2 8.2-.6 8.2 4.8 8.2-7.2 8.2.6 8.1 8.4 8.2-5.4 8.2 3V0H0v10.3z" fill="#ff76af"/><path d="m0 16.3 8.2-3 8.2-1.2 8.1 7.8 8.2-4.8 8.2-2.4 8.2 4.2 8.2-3.6 8.2-1.8 8.1 6.6 8.2-1.8H90v-5l-8.2-3-8.2 5.4-8.1-8.4-8.2-.6-8.2 7.2-8.2-4.8-8.2.6-8.2 4.2-8.1-7.2-8.2 2.4-8.2 3v6.2z" fill="#ff599d"/><path d="m0 30 8.2 6 8.2-1.8 8.1-2.4 8.2-.6 8.2-4.2 8.2.6 8.2-3.6 8.2 6 8.1-4.2 8.2 3 8.2-3V16h-8.2l-8.2 1.8-8.1-6.6-8.2 1.8-8.2 3.6-8.2-4.2-8.2 2.4-8.2 4.8-8.1-7.8L8.2 13 0 16.1v14z" fill="#ff308a"/><path d="m0 39 8.2.6 8.2-1.2 8.1 1.2 8.2-2.4h16.4l8.2-7.2 8.2 6.6 8.1-7.2 8.2 7.2L90 36V25.6l-8.2 3-8.2-3-8.1 4.2-8.2-6-8.2 3.6-8.2-.6-8.2 4.2-8.2.6-8.1 2.4-8.2 1.8L0 29.9v9.2z" fill="#f1007a"/><path d="M0 55.2 8.2 54l8.2-1.2h8.1l8.2 1.8 8.2 2.4 8.2-2.4h8.2l8.2.6 8.1-2.4 8.2-1.8 8.2 3.6V35.8l-8.2.6-8.2-7.2-8.1 7.2-8.2-6.6-8.2 7.2H32.7l-8.2 2.4-8.1-1.2-8.2 1.2-8.2-.6v16.4z" fill="#d5006d"/><path d="M0 60h90v-5.6l-8.2-3.6-8.2 1.8-8.1 2.4-8.2-.6h-8.2l-8.2 2.4-8.2-2.4-8.2-1.8h-8.1L0 55v5z" fill="#ba0060"/></svg>