<svg xmlns="http://www.w3.org/2000/svg" viewBox="0 0 90 67.5"><path d="M0 5.5c4.1-.2 12.3.2 16.4.7l8.1-1.4 8.2 5.4 8.2-5.4 8.2 4.1 8.2-4.7 8.2 4.7 8.1 1.3 8.2-4L90 8.9V0H0v5.5Z" fill="#ff76af"/><path d="m0 8.9 8.2 4 8.2-2 8.1-3.4 8.2 8.8 8.2-4.7 8.2 4 8.2-4 8.2 4.7 8.1-2c4.1-.3 12.3-1 16.4-1.4V8.7L81.8 6l-8.2 4-8.1-1.3L57.3 4l-8.2 4.7-8.2-4.1-8.2 5.4-8.2-5.4L16.4 6C12.3 5.5 4.1 5.1 0 5.3v3.6Z" fill="#ff5ea0"/><path d="m0 16.3 8.2 8.8c4.1-.6 12.3-2.3 16.3-3.4l8.2.7c4.1-.9 12.3-1.9 16.4-2 4.2.5 12.4 2.2 16.4 3.3l8.1.7 8.2 5.4 8.2-9.4v-7.7c-4.1.3-12.3 1-16.4 1.4l-8.1 2-8.2-4.7-8.2 4-8.2-4-8.2 4.7-8.2-8.8-8.1 3.4-8.2 2-8.2-4v7.6Z" fill="#ff4091"/><path d="m0 38.5 8.2-5.4 8.2 4 8.1-1.3 8.2 12.8 8.2-9.4 8.2-4.1 8.2-2.7 8.2 9.5 8.1 4 8.2 2L90 33.1v-13l-8.2 9.4c-8.7-5.5-5.8-5.4-16.3-6.1-4-1.1-12.2-2.8-16.4-3.3-4.1.1-12.3 1.1-16.4 2l-8.2-.7c-4 1.1-12.2 2.8-16.3 3.4L0 16.1v22.5Z" fill="#ff0080"/><path d="m0 48.6 8.2-8.1 8.2 8.1 8.1-1.4 8.2 6.1 8.2-6.1 8.2-3.3 8.2-6.1 8.2 9.4 8.1 4.8 8.2.7L90 41.2v-8.3l-8.2 14.8-8.2-2-8.1-4-8.2-9.5-8.2 2.7-8.2 4.1-8.2 9.4-8.2-12.8-8.1 1.3-8.2-4L0 38.3v10.3Z" fill="#e80075"/><path d="m0 62.1 8.2-1.3 8.2.6 8.1-.6 8.2 4c7.4-1.1 17.6-2.5 24.6-5.4l8.2 5.4 8.1-1.3h8.2l8.2-4.1V41l-8.2 11.5-8.2-.7-8.1-4.8-8.2-9.4-8.2 6.1-8.2 3.3-8.2 6.1-8.2-6.1-8.1 1.4-8.2-8.1L0 48.4v13.7Z" fill="#d1006b"/><path d="M0 67.5h90v-8.3l-8.2 4.1h-8.2l-8.1 1.3-8.2-5.4c-7 2.9-17.2 4.3-24.6 5.4l-8.2-4-8.1.6-8.2-.6L0 61.9v5.6Z" fill="#ba0060"/></svg>