<svg xmlns="http://www.w3.org/2000/svg" viewBox="0 0 90 67.5"><path d="m0 8.9 8.2-2 8.2.6 8.1-1.3 8.2 1.3 8.2 2.1 8.2.6 8.2-2 8.2-4c8.2 4.1 7 4.1 16.3 4.7L90 3.5V0H0v8.9Z" fill="#ff76af"/><path d="M0 12.3c4.1 1.6 12.3 5 16.4 6.7l8.1-8.1 8.2 5.4 8.2 2 8.2 3.4 8.2-10.1 8.2-2 8.1 8.1h8.2l8.2-4.8V3.3l-8.2 5.4c-9.4-.6-8.1-.6-16.3-4.7l-8.2 4-8.2 2-8.2-.6-8.2-2.1L24.5 6l-8.1 1.3-8.2-.6-8.2 2v3.6Z" fill="#ff5ea0"/><path d="m0 30.5 8.2 2.7 8.2-5.4 8.1 2 8.2 8.1 8.2-10.8 8.2 12.2 8.2-8.8 8.2 8.1 8.1-9.5 8.2 7.5 8.2-3.4V12.7l-8.2 4.8h-8.2l-8.1-8.1-8.2 2-8.2 10.1-8.2-3.4-8.2-2-8.2-5.4-8.1 8.1C12.3 17.1 4.1 13.7 0 12.1v18.4Z" fill="#ff4091"/><path d="m0 33.8 8.2 4.7 8.2-6.8 8.1 2.7 8.2 9.5 8.2-12.8 8.2 10.8 8.2-4.8 8.2 5.4 8.1-10.8 8.2 8.1 8.2-2v-4.9l-8.2 3.4-8.2-7.5-8.1 9.5-8.2-8.1-8.2 8.8-8.2-12.2-8.2 10.8-8.2-8.1-8.1-2-8.2 5.4L0 30.3v3.6Z" fill="#ff0080"/><path d="m0 42.5 8.2 4.1 8.2-7.4 8.1.6 8.2 8.1 8.2-12.1 8.2 9.4h8.2l8.2 1.4 8.1-6.1 8.2 4.1 8.2-2.7v-4.3l-8.2 2-8.2-8.1-8.1 10.8-8.2-5.4-8.2 4.8-8.2-10.8-8.2 12.8-8.2-9.5-8.1-2.7-8.2 6.8L0 33.7v8.9Z" fill="#e80075"/><path d="M0 55.4h8.2l8.2-10.8 8.1 7.4 8.2 2 8.2-4 8.2 1.3h8.2l8.2 1.4 8.1-7.5 8.2 13.5 8.2-3.3V41.7l-8.2 2.7-8.2-4.1-8.1 6.1-8.2-1.4h-8.2l-8.2-9.4-8.2 12.1-8.2-8.1-8.1-.6-8.2 7.4L0 42.3v13.1Z" fill="#d1006b"/><path d="M0 67.5h90V55.2l-8.2 3.3L73.6 45l-8.1 7.5-8.2-1.4h-8.2l-8.2-1.3-8.2 4-8.2-2-8.1-7.4-8.2 10.8H0v12.3Z" fill="#ba0060"/></svg>