<svg xmlns="http://www.w3.org/2000/svg" viewBox="0 0 90 67.5"><path d="m0 4.8 8.2.7 8.2 5.4c4.1.4 12.2 1.1 16.3 1.4l8.2-2.1 8.2-4 8.2 6.1c4-2.1 12.1-5.9 16.3-7.5l8.2 6.1 8.2-2V0H0v4.8Z" fill="#ff76af"/><path d="M0 18.3 8.2 17l8.2 10.8 8.1 4 8.2-6.7 8.2 6.7 16.4-4 8.2-12.2 8.1 2.7 8.2 12.9 8.2-8.1V8.7l-8.2 2-8.2-6.1c-4.2 1.6-12.3 5.4-16.3 7.5L49.1 6l-8.2 4-8.2 2.1c-4.1-.3-12.2-1-16.3-1.4L8.2 5.3 0 4.6v13.7Z" fill="#ff5ea0"/><path d="m0 31.8 8.2.7 8.2 6.1 8.1 3.4 8.2-4.1c9.4.2 7.9.2 16.4-3.4l8.2 3.4 8.2-7.4 8.1.7 8.2 10.1 8.2-9.5v-8.9L81.8 31l-8.2-12.9-8.1-2.7-8.2 12.2-16.4 4-8.2-6.7-8.2 6.7-8.1-4-8.2-10.8L0 18.1v13.7Z" fill="#ff4091"/><path d="m0 39.8 8.2-3.3 8.2 7.4 8.1 2 8.2-5.4c4.1.3 12.3 1 16.4 1.4l8.2 2 8.2-6.1 8.1-.7 8.2 7.5 8.2-9.5v-3.6L81.8 41l-8.2-10.1-8.1-.7-8.2 7.4-8.2-3.4c-8.5 3.6-7 3.6-16.4 3.4l-8.2 4.1-8.1-3.4-8.2-6.1-8.2-.7v8.3Z" fill="#ff0080"/><path d="m0 44.6 8.2-1.4 8.2 7.4 8.1 1.4 8.2-4.8 8.2.7 8.2-2 8.2 2.7c3.9-2.5 12-6.6 16.3-8.1l8.2 9.5 8.2-8.8v-6.3l-8.2 9.5-8.2-7.5-8.1.7-8.2 6.1-8.2-2c-4.1-.3-12.3-1-16.4-1.4l-8.2 5.4-8.1-2-8.2-7.4L0 39.6v5Z" fill="#e80075"/><path d="m0 60.8 8.2 3.3 8.2-4.7 8.1 1.4h8.2l8.2.6 8.2-1.3 16.4 4 8.1-5.4c9.7-.9 7.5-.9 16.4 2.7V41l-8.2 8.8-8.2-9.5c-4.3 1.5-12.4 5.6-16.3 8.1l-8.2-2.7-8.2 2-8.2-.7-8.2 4.8-8.1-1.4L8.2 43 0 44.4v16.4Z" fill="#d1006b"/><path d="M0 67.5h90v-6.3c-8.9-3.6-6.7-3.6-16.4-2.7l-8.1 5.4-16.4-4-8.2 1.3-8.2-.6h-8.2l-8.1-1.4-8.2 4.7L0 60.6v6.9Z" fill="#ba0060"/></svg>