<svg xmlns="http://www.w3.org/2000/svg" viewBox="0 0 90 67.5"><path d="m0 8.9 8.2 2 8.2-.7 8.1 3.4c4.2-.5 12.4-2.2 16.4-3.4 8.7 2.9 7.2 2.9 16.4 2.1l8.2 1.3h16.3l8.2-2V0H0v8.9Z" fill="#ff76af"/><path d="m0 20.4 8.2 2h8.2c4.1-.6 12.3-2.3 16.3-3.4l8.2-.7 8.2 6.1 8.2-1.3h8.2l8.1-4.1c9.7 1.8 7.2 1.8 16.4-1.3v-6.3l-8.2 2H65.5l-8.2-1.3c-9.2.8-7.7.8-16.4-2.1-4 1.2-12.2 2.9-16.4 3.4L16.4 10l-8.2.7-8.2-2v11.7Z" fill="#ff5ea0"/><path d="m0 39.8 8.2-8.1 8.2 6.8 8.1-5.4h8.2l8.2 4.7 8.2 3.4 8.2-1.4 8.2 6.1 8.1-4.7 8.2-6.8 8.2 1.4V17.5c-9.2 3.1-6.8 3-16.4 1.3l-8.1 4.1h-8.2l-8.2 1.3-8.2-6.1-8.2.7c-4 1.1-12.2 2.8-16.3 3.4H8.2l-8.2-2v19.7Z" fill="#ff4091"/><path d="m0 45.9 8.2-10.1 8.2 6.1 8.1-3.4 8.2 2 8.2 4.7 8.2-.6 8.2-2.1 8.2 6.1 8.1-1.4 8.2-8 8.2 2v-5.6l-8.2-1.4-8.2 6.8-8.1 4.7-8.2-6.1-8.2 1.4-8.2-3.4-8.2-4.7h-8.2l-8.1 5.4-8.2-6.8L0 39.6v6.3Z" fill="#ff0080"/><path d="M0 55.4 8.2 54l8.2 2 8.1.7 8.2-3.4 8.2-.6 8.2 5.4 8.2-4.1 8.2 4.7 8.1-4 16.4 4V41l-8.2-2-8.2 8-8.1 1.4-8.2-6.1-8.2 2.1-8.2.6-8.2-4.7-8.2-2-8.1 3.4-8.2-6.1L0 45.7v9.7Z" fill="#e80075"/><path d="M0 58.7h8.2l8.2 4.8c9.4-.6 8.1-.7 16.3-4.8l8.2.7 8.2 2.7 8.2-2 8.2 4 8.1-2 8.2 1.4 8.2-.7v-4.3l-16.4-4-8.1 4-8.2-4.7-8.2 4.1-8.2-5.4-8.2.6-8.2 3.4-8.1-.7-8.2-2L0 55.2v3.5Z" fill="#d1006b"/><path d="M0 67.5h90v-4.9l-8.2.7-8.2-1.4-8.1 2-8.2-4-8.2 2-8.2-2.7-8.2-.7c-8.2 4.1-6.9 4.2-16.3 4.8l-8.2-4.8H0v9Z" fill="#ba0060"/></svg>