<svg xmlns="http://www.w3.org/2000/svg" viewBox="0 0 90 67.5"><path d="m0 10.9 8.2-3.4c4.1-.4 12.2-.7 16.3-.6l8.2 6.7h8.2l8.2-2 8.2 2.7 8.2-6.8 8.1 4.1 8.2-2 8.2 4V0H0v10.9Z" fill="#ff76af"/><path d="m0 14.3 8.2-1.4 8.2-3.3 8.1 5.4 8.2 2h8.2l8.2-2 8.2 4.7 8.2-5.4 8.1 2.7 8.2 1.3 8.2-.6v-4.3l-8.2-4-8.2 2-8.1-4.1-8.2 6.8-8.2-2.7-8.2 2h-8.2l-8.2-6.7c-4.1-.1-12.2.2-16.3.6L0 10.7v3.6Z" fill="#ff5ea0"/><path d="M0 20.4 8.2 19l8.2-6.1c4 2.7 12.2 8.1 16.3 10.8h8.2l8.2-2 8.2 4.1 8.2-4.1 8.1-1.3c9 2.3 7.3 2.3 16.4.6v-3.5l-8.2.6-8.2-1.3-8.1-2.7-8.2 5.4-8.2-4.7-8.2 2h-8.2l-8.2-2-8.1-5.4-8.2 3.3L0 14.1v6.3Z" fill="#ff4091"/><path d="M0 28.5c8.2-5.3 6.4-5.4 16.4-6.8l8.1 3.4 8.2 10.1 8.2-2 8.2-3.4c4.1-.2 12.3.2 16.4.7l8.1-3.4 8.2 1.4 8.2 3.3v-11c-9.1 1.7-7.5 1.7-16.4-.6l-8.1 1.3-8.2 4.1-8.2-4.1-8.2 2h-8.2c-4.1-2.7-12.3-8.1-16.3-10.8l-8.2 6.1L0 20.2v8.3Z" fill="#ff0080"/><path d="M0 47.2 8.2 52c4.2-3 12.4-9.4 16.3-12.8l8.2 17.5c8.5-4.8 6.4-4.8 16.4-5.4l8.2-12.8h8.2l8.1 1.3 8.2 11.5L90 41.2v-9.7l-8.2-3.3-8.2-1.4-8.1 3.4c-4.1-.5-12.3-.9-16.4-.7l-8.2 3.4-8.2 2-8.2-10.1-8.1-3.4c-10 1.4-8.2 1.5-16.4 6.8v19Z" fill="#e80075"/><path d="m0 53.3 8.2 3.4 8.2-1.3 8.1-8.8 8.2 13.5 8.2-1.4 8.2 1.4 8.2-15.5 8.2 2.6h8.1l8.2 11.5L90 47.2V41l-8.2 10.1-8.2-11.5-8.1-1.3h-8.2l-8.2 12.8c-10 .6-7.9.6-16.4 5.4L24.5 39c-3.9 3.4-12.1 9.8-16.3 12.8L0 47v6.3Z" fill="#d1006b"/><path d="M0 67.5h90V47l-8.2 11.5L73.6 47h-8.1l-8.2-2.6-8.2 15.5-8.2-1.4-8.2 1.4-8.2-13.5-8.1 8.8-8.2 1.3L0 53.1v14.4Z" fill="#ba0060"/></svg>