<svg xmlns="http://www.w3.org/2000/svg" viewBox="0 0 90 67.5"><path d="m0 3.5 8.2 3.4 8.2-.7 8.1 1.3 8.2-2.7 8.2-1.3 8.2.7 8.2 2 8.2-.7 8.1-2.7 8.2 4.7L90 2.8V0H0v3.5Z" fill="#ff76af"/><path d="m0 16.3 8.2 1.4 8.2 8.1 8.1-8.8 8.2 12.1 8.2-2.7 8.2-6.7 8.2 2c8.4-4.7 6.4-4.8 16.3-5.4l8.2 6.1L90 21V2.6l-8.2 4.7-8.2-4.7-8.1 2.7-8.2.7-8.2-2-8.2-.7-8.2 1.3-8.2 2.7L16.4 6l-8.2.7L0 3.3v13Z" fill="#ff5ea0"/><path d="m0 27.1 8.2-2 8.2 6.1 8.1-4.1 8.2 9.5 8.2-2.1 8.2-6.7 8.2.7 8.2-7.5 8.1 1.4 8.2 10.8 8.2-3.4v-9l-8.2 1.4-8.2-6.1c-10 .6-7.9.7-16.3 5.4l-8.2-2-8.2 6.7-8.2 2.7-8.2-12.1-8.1 8.8-8.2-8.1L0 16.1v11Z" fill="#ff4091"/><path d="m0 31.8 8.2-2.7 8.2 8.1 8.1-3.3 8.2 10.8 8.2-2.1 8.2-9.4 8.2 2 8.2-6.7 8.1 2.7 8.2 5.4 8.2 1.3v-8.3L81.8 33l-8.2-10.8-8.1-1.4-8.2 7.5-8.2-.7-8.2 6.7-8.2 2.1-8.2-9.5-8.1 4.1-8.2-6.1-8.2 2v4.9Z" fill="#ff0080"/><path d="m0 43.9 8.2-5.4 8.2 8.7 8.1-2.6c8.2 4.1 7 4.1 16.4 4.7l8.2-12.2 8.2 3.4 8.2-.7 8.1-2 8.2 2.7 8.2 8.1v-11l-8.2-1.3-8.2-5.4-8.1-2.7-8.2 6.7-8.2-2-8.2 9.4-8.2 2.1-8.2-10.8-8.1 3.3-8.2-8.1L0 31.6V44Z" fill="#e80075"/><path d="m0 60.8 8.2.6 8.2-1.3 8.1 4.7 8.2-4.7 8.2 3.4 8.2-3.4 8.2 4c4-1.5 12.1-3.8 16.3-4.7l8.2 2.7 8.2-2.7v-11l-8.2-8.1-8.2-2.7-8.1 2-8.2.7-8.2-3.4-8.2 12.2c-9.4-.6-8.2-.7-16.4-4.7L16.4 47l-8.2-8.7L0 43.7v17.1Z" fill="#d1006b"/><path d="M0 67.5h90v-8.3l-8.2 2.7-8.2-2.7c-4.2.9-12.3 3.2-16.3 4.7l-8.2-4-8.2 3.4-8.2-3.4-8.2 4.7-8.1-4.7-8.2 1.3-8.2-.6v6.9Z" fill="#ba0060"/></svg>