<svg xmlns="http://www.w3.org/2000/svg" viewBox="0 0 90 67.5"><path d="M0 4.8c9.7-.9 7.5-.9 16.4 2.7 9.4-2.4 7-2.3 16.3 0 9-2.3 7.3-2.3 16.4-.6l8.2-2.7 8.2.6 8.1 2.1h8.2L90 4.8V0H0v4.8Z" fill="#ff76af"/><path d="M0 7.5c4 1.2 12.2 2.9 16.4 3.4 4.1-.2 12.2.2 16.3.7 4.1-.9 12.3-1.9 16.4-2l8.2-2.1 8.2 1.4c3.9 1.8 12.1 4.9 16.3 6.1L90 8.9V4.6l-8.2 2.1h-8.2l-8.1-2.1-8.2-.6-8.2 2.7C40 5 41.7 5 32.7 7.3c-9.3-2.3-6.9-2.4-16.3 0C7.5 3.7 9.7 3.7 0 4.6v2.9Z" fill="#ff5ea0"/><path d="m0 14.3 8.2 6.1 8.2-5.4 8.1 5.4 8.2-2.7 8.2 3.3 8.2-6 8.2 5.4 8.2-7.5 8.1 6.8 8.2 4.7 8.2-6.7v-9l-8.2 6.1c-4.2-1.2-12.3-4.3-16.3-6.1l-8.2-1.4-8.2 2.1c-4.1.1-12.3 1.1-16.4 2-4-.5-12.2-.9-16.3-.7C12.2 10.2 4 8.5 0 7.3v7Z" fill="#ff4091"/><path d="m0 21.7 8.2 9.5 8.2-9.5 8.1 8.8 8.2-6.1 8.2.7 8.2 3.4 8.2-2.7 8.2-6.8 8.1 11.5 8.2 5.4 8.2-4.7V17.5l-8.2 6.7-8.2-4.7-8.1-6.8-8.2 7.5-8.2-5.4-8.2 6-8.2-3.3-8.2 2.7-8.1-5.4-8.2 5.4L0 14.1v7.6Z" fill="#ff0080"/><path d="m0 32.5 8.2 16.2 8.2-6.7 8.1 10.1 8.2-12.2 8.2 5.4 8.2 2.7 8.2 1.4 8.2-6.8 8.1-2 8.2 11.5L90 39.3V31l-8.2 4.7-8.2-5.4-8.1-11.5-8.2 6.8-8.2 2.7-8.2-3.4-8.2-.7-8.2 6.1-8.1-8.8L8.2 31 0 21.5v11Z" fill="#e80075"/><path d="m0 41.2 8.2 14.2 8.2-5.4 8.1 9.4 8.2-10.1 8.2 5.4 8.2-2 8.2.6 8.2-3.3 8.1-6.1 8.2 15.5L90 47.9V39l-8.2 12.8-8.2-11.5-8.1 2-8.2 6.8-8.2-1.4-8.2-2.7-8.2-5.4-8.2 12.2-8.1-10.1-8.2 6.7L0 32.3v9Z" fill="#d1006b"/><path d="M0 67.5h90V47.7l-8.2 11.5-8.2-15.5-8.1 6.1-8.2 3.3-8.2-.6-8.2 2-8.2-5.4-8.2 10.1-8.1-9.4-8.2 5.4L0 41v26.5Z" fill="#ba0060"/></svg>