<svg xmlns="http://www.w3.org/2000/svg" viewBox="0 0 90 67.5"><path d="M0 13.6 8.2 17l8.2.7 8.1 2.7 8.2-13.5 8.2 4.7 8.2 8.1 8.2-6.1 8.2 8.8 8.1-2.7 8.2-8.1L90 27.1V0H0v13.6Z" fill="#ff76af"/><path d="m0 21.7 8.2 2.7 8.2-2.7 8.1 9.5L32.7 17l8.2 2 8.2 6.8 8.2-2.1 8.2 4.1 8.1-2 8.2-6.1L90 31.2v-4.3l-8.2-15.5-8.2 8.1-8.1 2.7-8.2-8.8-8.2 6.1-8.2-8.1-8.2-4.7-8.2 13.5-8.1-2.7-8.2-.7L0 13.4v8.3Z" fill="#ff5ea0"/><path d="m0 45.9 8.2-8.1 8.2-.7 8.1 6.1 8.2-5.4 8.2 4.1 8.2-6.1c8.8 3 7.1 2.9 16.4 2 9.1 3.1 6.7 3 16.3 1.4l8.2 6V30.9l-8.2-11.5-8.2 6.1-8.1 2-8.2-4.1-8.2 2.1-8.2-6.8-8.2-2-8.2 14.2-8.1-9.5-8.2 2.7L0 21.5V46Z" fill="#ff4091"/><path d="M0 50.6c4-2.4 12.2-6.8 16.4-8.7l8.1 4.7 8.2-5.4 8.2 6 8.2-7.4c7.5 2.2 17.1 6.6 24.5 8.8l8.2-.7L90 50v-5l-8.2-6c-9.6 1.6-7.2 1.7-16.3-1.4-9.3.9-7.6.9-16.4-2l-8.2 6.1-8.2-4.1-8.2 5.4-8.1-6.1-8.2.7L0 45.7v4.9Z" fill="#ff0080"/><path d="M0 58.1 8.2 52l8.2-4.1 8.1 5.4 8.2-7.4 8.2 4.1 8.2-6.1 8.2 4 8.2 2.1 8.1 3.3c9.4-2.4 7-2.4 16.4 0v-3.5l-8.2-2.1-8.2.7c-7.4-2.2-17.1-6.6-24.5-8.8L40.9 47l-8.2-6-8.2 5.4-8.1-4.7C12.2 43.6 4 48 0 50.4v7.7Z" fill="#e80075"/><path d="m0 62.8 8.2-6.1 8.2-4 8.1 7.4 8.2-6.1 8.2 4.1 8.2-6.1 8.2 4c4.1-.2 12.2.2 16.3.7l8.2 2.7 8.2.7v-7c-9.4-2.4-7-2.4-16.4 0l-8.1-3.3-8.2-2.1-8.2-4-8.2 6.1-8.2-4.1-8.2 7.4-8.1-5.4-8.2 4.1L0 57.9v4.9Z" fill="#d1006b"/><path d="M0 67.5h90v-7.6l-8.2-.7-8.2-2.7c-4.1-.5-12.2-.9-16.3-.7l-8.2-4-8.2 6.1-8.2-4.1-8.2 6.1-8.1-7.4-8.2 4L0 62.6v4.9Z" fill="#ba0060"/></svg>