<svg xmlns="http://www.w3.org/2000/svg" viewBox="0 0 90 67.5"><path d="m0 4.2 8.2 2.7 8.2 4.7 8.1-6.8c4.1 1.1 12.3 3.1 16.4 4.1l8.2-1.4 8.2-2.7h8.2l8.1 6.1 8.2-2.7 8.2 3.4V0H0v4.2Z" fill="#ff76af"/><path d="M0 8.2c8.7 5.5 5.8 5.4 16.4 6.1l8.1-5.4 8.2 4.7 8.2-.7 8.2 1.4 8.2-4.1 8.2 1.4 8.1 3.4 8.2-.7 8.2 4v-6.9L81.8 8l-8.2 2.7-8.1-6.1h-8.2l-8.2 2.7-8.2 1.4c-4.1-1-12.3-3-16.4-4.1l-8.1 6.8-8.2-4.7L0 4v4.2Z" fill="#ff5ea0"/><path d="m0 35.1 8.2-6.7 8.2-3.4 8.1 2.7 8.2-4.7 8.2 9.4 8.2.7 8.2-12.8 8.2 15.5 8.1-12.2 8.2 9.5 8.2 4.7V18.1l-8.2-4-8.2.7-8.1-3.4-8.2-1.4-8.2 4.1-8.2-1.4-8.2.7-8.2-4.7-8.1 5.4-8.2-.7L0 8v27.2Z" fill="#ff4091"/><path d="m0 43.9 8.2 4 8.2 1.4h8.1l8.2-4.7 8.2 4.7 8.2-2.1 8.2-6.7 8.2 3.4 8.1.7 8.2-4.8 8.2 8.8v-11l-8.2-4.7-8.2-9.5-8.1 12.2-8.2-15.5-8.2 12.8-8.2-.7-8.2-9.4-8.2 4.7-8.1-2.7-8.2 3.4L0 34.9v9Z" fill="#ff0080"/><path d="m0 52.7 8.2-.7 8.2 5.4c8.5-4.8 6.3-4.8 16.3-5.4l8.2 6.1 8.2-8.1 16.4-2.8 8.1 2.8 8.2-6.1 8.2 8.8v-4.3l-8.2-8.8-8.2 4.8-8.1-.7-8.2-3.4-8.2 6.7-8.2 2.1-8.2-4.7-8.2 4.7h-8.1l-8.2-1.4-8.2-4v9Z" fill="#e80075"/><path d="M0 60.8c9.8-1 7.4-1 16.4 2.7l8.1-5.4 8.2 5.4 8.2-.7 8.2-5.4 8.2 4c4.1-1 12.2-3 16.3-4l8.2.7 8.2 4.7V52.5l-8.2-8.8-8.2 6.1-8.1-2.8-16.4 2.8-8.2 8.1-8.2-6.1c-10 .6-7.9.6-16.3 5.4l-8.2-5.4-8.2.7v8.3Z" fill="#d1006b"/><path d="M0 67.5h90v-4.9l-8.2-4.7-8.2-.7c-4.1 1-12.2 3-16.3 4l-8.2-4c-8.7 5.5-5.8 5.4-16.4 6.1l-8.2-5.4-8.1 5.4c-9-3.7-6.6-3.7-16.4-2.7v6.9Z" fill="#ba0060"/></svg>