<svg xmlns="http://www.w3.org/2000/svg" viewBox="0 0 900 676"><path d="m0 75 12.5-2.2C25 70.7 50 66.3 75 65.3s50 1.4 75-4.3c25-5.7 50-19.3 75-26.2 25-6.8 50-6.8 75-5.6 25 1.1 50 3.5 75 8s50 11.1 75 10c25-1.2 50-10.2 75-12.4 25-2.1 50 2.5 75 9.4 25 6.8 50 15.8 75 18 25 2.1 50-2.5 75-1.5s50 7.6 75 6.5c25-1.2 50-10.2 62.5-14.7L900 48V0H0v75z" fill="#9592ff"/><path d="m0 150 12.5-4.5C25 141 50 132 75 132s50 9 75 3.3c25-5.6 50-26 75-39.5s50-20.1 75-23.5c25-3.3 50-3.3 75 4.5 25 7.9 50 23.5 75 28s50-2.1 75 0c25 2.2 50 13.2 75 16.5 25 3.4 50-1 75-2s50 1.4 75 8c25 6.7 50 17.7 75 9.7s50-35 62.5-48.5L900 75V46l-12.5 4.5C875 55 850 64 825 65.2c-25 1.1-50-5.5-75-6.5s-50 3.6-75 1.5c-25-2.2-50-11.2-75-18-25-6.9-50-11.5-75-9.4-25 2.2-50 11.2-75 12.4-25 1.1-50-5.5-75-10s-50-6.9-75-8c-25-1.2-50-1.2-75 5.6-25 6.9-50 20.5-75 26.2-25 5.7-50 3.3-75 4.3s-50 5.4-62.5 7.5L0 73v77z" fill="#8482ff"/><path d="m0 224 12.5 5.7c12.5 5.6 37.5 17 62.5 23.6 25 6.7 50 8.7 75-2.6 25-11.4 50-36 75-50.5s50-18.9 75-14.4 50 17.9 75 20c25 2.2 50-6.8 75-8 25-1.1 50 5.5 75 12.4 25 6.8 50 13.8 75 17.3s50 3.5 75 6.8c25 3.4 50 10 75 17.9 25 7.8 50 16.8 75 1 25-15.9 50-56.5 62.5-76.9L900 156V73l-12.5 13.5C875 100 850 127 825 135s-50-3-75-9.7c-25-6.6-50-9-75-8s-50 5.4-75 2c-25-3.3-50-14.3-75-16.5-25-2.1-50 4.5-75 0s-50-20.1-75-28c-25-7.8-50-7.8-75-4.5-25 3.4-50 10-75 23.5s-50 33.9-75 39.5c-25 5.7-50-3.3-75-3.3s-50 9-62.5 13.5L0 148v76z" fill="#7371ff"/><path d="m0 413 12.5 6.7c12.5 6.6 37.5 20 62.5 16.6 25-3.3 50-23.3 75-34.5 25-11.1 50-13.5 75-4.5s50 29.4 75 29.4 50-20.4 75-26c25-5.7 50 3.3 75 4.5 25 1.1 50-5.5 75-3.4 25 2.2 50 13.2 75 13.2s50-11 75-14.3c25-3.4 50 1 75 1s50-4.4 75-13.4 50-22.6 62.5-29.5L900 352V154l-12.5 20.3c-12.5 20.4-37.5 61-62.5 76.9-25 15.8-50 6.8-75-1-25-7.9-50-14.5-75-17.9-25-3.3-50-3.3-75-6.8s-50-10.5-75-17.3c-25-6.9-50-13.5-75-12.4-25 1.2-50 10.2-75 8-25-2.1-50-15.5-75-20s-50-.1-75 14.4-50 39.1-75 50.5c-25 11.3-50 9.3-75 2.6-25-6.6-50-18-62.5-23.6L0 222v191z" fill="#6060ff"/><path d="m0 473 12.5 8C25 489 50 505 75 509.7c25 4.6 50-2 75-10s50-17.4 75-11.9 50 25.9 75 28.2 50-13.3 75-22.3 50-11.4 75-15.9 50-11.1 75-2.1 50 33.6 75 30.3 50-34.7 75-39.2 50 17.9 75 24.5c25 6.7 50-2.3 75-18 25-15.6 50-38 62.5-49.1L900 413v-63l-12.5 6.8c-12.5 6.9-37.5 20.5-62.5 29.5s-50 13.4-75 13.4-50-4.4-75-1c-25 3.3-50 14.3-75 14.3s-50-11-75-13.2c-25-2.1-50 4.5-75 3.4-25-1.2-50-10.2-75-4.5-25 5.6-50 26-75 26s-50-20.4-75-29.4-50-6.6-75 4.5c-25 11.2-50 31.2-75 34.5-25 3.4-50-10-62.5-16.6L0 411v62z" fill="#5754eb"/><path d="m0 595 12.5 1.2C25 597.3 50 599.7 75 606.5s50 18.2 75 18.2 50-11.4 75-13.7 50 4.3 75 7.7c25 3.3 50 3.3 75 1.1 25-2.1 50-6.5 75-4.1 25 2.3 50 11.3 75 12.3s50-6 75-11.7c25-5.6 50-10 75-14.5s50-9.1 75-5.8 50 14.7 75 15.8c25 1.2 50-7.8 62.5-12.3L900 595V411l-12.5 11.2C875 433.3 850 455.7 825 471.3c-25 15.7-50 24.7-75 18-25-6.6-50-29-75-24.5s-50 35.9-75 39.2-50-21.3-75-30.3-50-2.4-75 2.1-50 6.9-75 15.9-50 24.6-75 22.3-50-22.7-75-28.2-50 3.9-75 11.9-50 14.6-75 10C50 503 25 487 12.5 479L0 471v124z" fill="#4e49d7"/><path d="M0 676h900v-83l-12.5 4.5C875 602 850 611 825 609.8c-25-1.1-50-12.5-75-15.8s-50 1.3-75 5.8-50 8.9-75 14.5c-25 5.7-50 12.7-75 11.7s-50-10-75-12.3c-25-2.4-50 2-75 4.1-25 2.2-50 2.2-75-1.1-25-3.4-50-10-75-7.7s-50 13.7-75 13.7-50-11.4-75-18.2-50-9.2-62.5-10.3L0 593v83z" fill="#443ec4"/></svg>